<svg width="105" height="28" viewBox="0 0 105 28" fill="none" xmlns="http://www.w3.org/2000/svg">
<path d="M0 0H18.5938V4.10156H4.12109V27.7734H0V0ZM6.46484 11.2695H18.5938V15.3711H6.46484V11.2695ZM20.8906 14.8438C20.8906 13.5026 21.2161 12.2786 21.8672 11.1719C22.5312 10.0651 23.4167 9.1862 24.5234 8.53516C25.6302 7.87109 26.8542 7.53906 28.1953 7.53906H32.6094C33.9505 7.53906 35.1745 7.87109 36.2812 8.53516C37.388 9.1862 38.2669 10.0651 38.918 11.1719C39.582 12.2786 39.9141 13.5026 39.9141 14.8438V20.4688C39.9141 21.8099 39.582 23.0339 38.918 24.1406C38.2669 25.2474 37.388 26.1328 36.2812 26.7969C35.1745 27.4479 33.9505 27.7734 32.6094 27.7734H28.1953C26.8542 27.7734 25.6302 27.4479 24.5234 26.7969C23.4167 26.1328 22.5312 25.2474 21.8672 24.1406C21.2161 23.0339 20.8906 21.8099 20.8906 20.4688V14.8438ZM25.0117 20.4297C25.0117 21.3151 25.3242 22.0768 25.9492 22.7148C26.5742 23.3398 27.3229 23.6523 28.1953 23.6523H32.6094C33.4948 23.6523 34.2435 23.3398 34.8555 22.7148C35.4805 22.0768 35.793 21.3151 35.793 20.4297V14.8828C35.793 13.9974 35.4805 13.2422 34.8555 12.6172C34.2435 11.9792 33.4948 11.6602 32.6094 11.6602H28.1953C27.3229 11.6602 26.5742 11.9792 25.9492 12.6172C25.3242 13.2422 25.0117 13.9974 25.0117 14.8828V20.4297ZM42.2109 0H46.332V23.6523H53.5C54.3854 23.6523 55.1341 23.3398 55.7461 22.7148C56.3711 22.0898 56.6836 21.3411 56.6836 20.4688V14.8828C56.6836 13.9974 56.3711 13.2422 55.7461 12.6172C55.1341 11.9792 54.3854 11.6602 53.5 11.6602H48.6758V7.53906H53.5C54.8411 7.53906 56.0651 7.87109 57.1719 8.53516C58.2786 9.1862 59.1576 10.0651 59.8086 11.1719C60.4727 12.2786 60.8047 13.5026 60.8047 14.8438V20.5078C60.8047 21.8359 60.4727 23.0534 59.8086 24.1602C59.1576 25.2539 58.2786 26.1328 57.1719 26.7969C56.0651 27.4479 54.8411 27.7734 53.5 27.7734H46.332C45.1992 27.7734 44.2292 27.3698 43.4219 26.5625C42.6146 25.7552 42.2109 24.7852 42.2109 23.6523V0ZM63.4922 11.7188C63.4922 10.5599 63.9154 9.57682 64.7617 8.76953C65.6081 7.94922 66.6237 7.53906 67.8086 7.53906H76.2461C77.3268 7.53906 78.3034 7.80599 79.1758 8.33984C80.0612 8.86068 80.7643 9.57031 81.2852 10.4688C81.819 11.3542 82.0859 12.3372 82.0859 13.418V13.9844C82.0859 15.0521 81.819 16.0286 81.2852 16.9141C80.7643 17.7865 80.0612 18.4896 79.1758 19.0234C78.3034 19.5443 77.3268 19.8047 76.2461 19.8047H69.957V15.7031H76.2852C76.7539 15.7031 77.151 15.5339 77.4766 15.1953C77.8151 14.8568 77.9844 14.4466 77.9844 13.9648V13.418C77.9844 12.9232 77.8151 12.5065 77.4766 12.168C77.151 11.8294 76.7539 11.6602 76.2852 11.6602H67.6133V22.0508C67.6133 22.4935 67.763 22.8711 68.0625 23.1836C68.362 23.4961 68.7266 23.6523 69.1562 23.6523H80.6602V27.7734H69.1562C68.1146 27.7734 67.1641 27.5195 66.3047 27.0117C65.4453 26.4909 64.7617 25.8008 64.2539 24.9414C63.7461 24.069 63.4922 23.112 63.4922 22.0703V11.7188ZM91.0625 17.6367L82.8203 7.53906H88.0742L93.7578 14.5508L99.4414 7.53906H104.676L96.4531 17.6367L104.676 27.7734H99.4609L93.7578 20.7617L88.0547 27.7734H82.8203L91.0625 17.6367Z" fill="black"/>
</svg>
